<svg xmlns="http://www.w3.org/2000/svg" xmlns:xlink="http://www.w3.org/1999/xlink" width="502.667" height="310.667" viewBox="0 0 502.667 310.667"><defs><linearGradient id="a" x1="-0.932" y1="2.818" x2="-0.93" y2="2.818" gradientUnits="objectBoundingBox"><stop offset="0" stop-color="#cb1a37"/><stop offset="0.475" stop-color="#ee2046"/><stop offset="1" stop-color="#ee2046"/></linearGradient></defs><g transform="translate(-288.664 -384.665)"><g transform="translate(-180 1259.996)"><path d="M468.665-864.6v289.209a10.73,10.73,0,0,0,10.729,10.729H960.6a10.73,10.73,0,0,0,10.729-10.729h0V-864.6A10.729,10.729,0,0,0,960.6-875.331H479.395A10.729,10.729,0,0,0,468.665-864.6" fill="url(#a)"/></g><g transform="translate(-180 1259.996)"><g transform="translate(699.495 -733.998)"><path d="M0,0H-105.074a6.8,6.8,0,0,1-6.8-6.8V-38.537a6.8,6.8,0,0,1,6.8-6.8H0a6.8,6.8,0,0,1,6.8,6.8V-6.8A6.8,6.8,0,0,1,0,0" fill="#f8f8fa"/></g><g transform="translate(706.292 -772.535)"><path d="M0,0V105.074a6.8,6.8,0,0,1-6.8,6.8H-38.537a6.8,6.8,0,0,1-6.8-6.8V0a6.8,6.8,0,0,1,6.8-6.8H-6.8A6.8,6.8,0,0,1,0,0" fill="#f8f8fa"/></g><g transform="translate(891.3 -733.998)"><path d="M0,0H-105.272a6.7,6.7,0,0,1-6.7-6.7V-38.636a6.7,6.7,0,0,1,6.7-6.7H0a6.7,6.7,0,0,1,6.7,6.7V-6.7A6.7,6.7,0,0,1,0,0" fill="#f8f8fa"/></g><g transform="translate(897.998 -772.295)"><path d="M0,0V104.594a7.037,7.037,0,0,1-7.036,7.036H-38.3a7.037,7.037,0,0,1-7.036-7.036V0A7.037,7.037,0,0,1-38.3-7.036H-7.036A7.037,7.037,0,0,1,0,0" fill="#f8f8fa"/></g></g></g></svg>