<?xml version="1.0" standalone="no"?>
<!DOCTYPE svg PUBLIC "-//W3C//DTD SVG 20010904//EN"
 "http://www.w3.org/TR/2001/REC-SVG-20010904/DTD/svg10.dtd">
<svg version="1.0" xmlns="http://www.w3.org/2000/svg"
 width="1006.000000pt" height="1006.000000pt" viewBox="0 0 1006.000000 1006.000000"
 preserveAspectRatio="xMidYMid meet">
<metadata>
Created by potrace 1.14, written by Peter Selinger 2001-2017
</metadata>
<g transform="translate(0.000000,1006.000000) scale(0.100000,-0.100000)"
fill="#000000" stroke="none">
<path d="M156 8133 c-39 -10 -92 -51 -121 -93 l-30 -43 0 -2966 0 -2966 23
-37 c27 -43 74 -80 121 -96 49 -17 9706 -17 9763 0 50 15 106 66 129 118 18
41 19 137 19 2974 0 2254 -3 2940 -12 2970 -14 44 -67 102 -116 128 -32 17
-290 18 -4895 17 -2674 -1 -4871 -4 -4881 -6z"/>
</g>
</svg>
